<svg xmlns="http://www.w3.org/2000/svg" width="64" height="64" viewBox="0 0 64 64">
    <path fill="#047afe" fill-rule="nonzero" d="M32 2C15.433 2 2 15.433 2 32s13.433 30 30 30c16.568 0 30-13.433 30-30S48.568 2 32 2zm-9.98 12.02C24.7 11.34 27.915 10 31.667 10c3.751 0 6.986 1.34 9.704 4.02 2.718 2.68 4.077 5.933 4.077 9.761 0 3.905-1.148 8.384-3.445 13.437-2.297 5.053-4.594 9.15-6.891 12.289L31.667 54.1c-.383-.459-.88-1.11-1.493-1.952-.613-.842-1.704-2.47-3.273-4.88a77.24 77.24 0 0 1-4.135-7.121c-1.187-2.335-2.278-5.034-3.273-8.097C18.498 28.988 18 26.231 18 23.781c0-3.828 1.34-7.082 4.02-9.761zm5.053 14.585c1.301 1.225 2.833 1.837 4.594 1.837 1.76 0 3.292-.631 4.593-1.895 1.302-1.263 1.953-2.775 1.953-4.536 0-1.76-.651-3.292-1.953-4.594-1.301-1.301-2.832-1.952-4.593-1.952-1.761 0-3.273.65-4.537 1.952-1.263 1.302-1.895 2.833-1.895 4.594 0 1.761.613 3.292 1.838 4.594z"/>
</svg>
