<svg xmlns="http://www.w3.org/2000/svg" width="64" height="20" viewBox="0 0 64 20">
    <g fill="none" fill-rule="evenodd">
        <rect width="63" height="19" x=".5" y=".5" fill="#47C3FF" stroke="#47C3FF" rx="4"/>
        <path fill="#FFF" fill-rule="nonzero" d="M13.777 6h1.378l2.754 7.27h-1.264l-.723-1.873h-2.924l-.722 1.874H11L13.777 6zm1.942 4.448l-1.264-3.33-1.265 3.33h2.53zm3.398-2.529h1.062l.067.53c.249-.217.516-.38.802-.485.286-.105.621-.158 1.005-.158.798 0 1.404.215 1.818.644.414.429.62 1.114.62 2.055 0 .948-.218 1.665-.654 2.15-.437.486-1.047.729-1.83.729-.647 0-1.2-.15-1.659-.452v2.777h-1.23V7.92zm2.575 4.539c.526 0 .918-.162 1.174-.486.256-.323.384-.816.384-1.479 0-.632-.117-1.082-.35-1.349-.234-.267-.625-.4-1.175-.4-.549 0-1.008.188-1.377.564v2.676c.361.316.81.474 1.344.474zm3.996-4.539h1.062l.067.53c.249-.217.516-.38.802-.485.286-.105.62-.158 1.005-.158.797 0 1.403.215 1.817.644.414.429.621 1.114.621 2.055 0 .948-.218 1.665-.655 2.15-.436.486-1.046.729-1.829.729-.647 0-1.2-.15-1.66-.452v2.777h-1.23V7.92zm2.574 4.539c.527 0 .919-.162 1.175-.486.255-.323.383-.816.383-1.479 0-.632-.116-1.082-.35-1.349-.233-.267-.624-.4-1.174-.4-.55 0-1.008.188-1.377.564v2.676c.361.316.809.474 1.343.474zm3.997-4.539h1.129l.068.621a4.93 4.93 0 0 1 .914-.451c.354-.136.704-.23 1.05-.283v.937c-.323.06-.673.153-1.05.277-.376.124-.67.254-.88.39v3.86h-1.231V7.92zm6.198 5.465c-1.859 0-2.788-.93-2.788-2.789 0-1.86.93-2.789 2.788-2.789 1.867 0 2.8.93 2.8 2.789 0 1.86-.933 2.789-2.8 2.789zm0-1.039c.565 0 .966-.136 1.203-.406.237-.271.355-.72.355-1.344 0-.617-.118-1.061-.355-1.332-.237-.271-.638-.407-1.203-.407-.557 0-.954.136-1.19.407-.238.27-.357.715-.357 1.332 0 .625.119 1.073.356 1.344.237.27.634.406 1.191.406zm3.15-4.426h1.276l1.501 4.155 1.502-4.155h1.264l-2.1 5.352h-1.332l-2.11-5.352zm8.897 5.465c-.949 0-1.675-.234-2.18-.7-.504-.467-.756-1.167-.756-2.1 0-.88.222-1.564.666-2.05.444-.485 1.103-.728 1.976-.728.79 0 1.396.207 1.818.621.421.414.632.968.632 1.66v.993h-3.918c.06.512.245.868.554 1.067.308.2.794.3 1.456.3.271 0 .548-.027.83-.08.282-.052.532-.12.75-.203v.904c-.474.21-1.083.316-1.828.316zm1.072-3.105v-.373c0-.384-.105-.675-.316-.875-.21-.2-.55-.299-1.016-.299-.557 0-.947.12-1.169.361-.222.241-.333.636-.333 1.186h2.834z"/>
    </g>
</svg>
