<svg xmlns="http://www.w3.org/2000/svg" width="64" height="20" viewBox="0 0 64 20">
    <g fill="none" fill-rule="evenodd">
        <rect width="64" height="20" fill="#D0021B" rx="4"/>
        <path fill="#FFF" fill-rule="nonzero" d="M17.864 14.208c-1.248 0-2.204-.342-2.868-1.026-.664-.684-.996-1.63-.996-2.838 0-1.304.32-2.314.96-3.03.64-.716 1.604-1.074 2.892-1.074.808 0 1.564.124 2.268.372v1.14a5.948 5.948 0 0 0-2.172-.396c-.936 0-1.608.248-2.016.744-.408.496-.612 1.244-.612 2.244 0 .912.218 1.6.654 2.064.436.464 1.102.696 1.998.696.792 0 1.512-.124 2.16-.372v1.152a7.542 7.542 0 0 1-2.268.324zm4.776 0c-.576 0-1.056-.15-1.44-.45-.384-.3-.576-.73-.576-1.29s.19-1.002.57-1.326c.38-.324.95-.486 1.71-.486h1.824v-.252c0-.28-.042-.498-.126-.654-.084-.156-.238-.27-.462-.342-.224-.072-.544-.108-.96-.108-.672 0-1.3.1-1.884.3v-.972c.272-.104.592-.188.96-.252a6.789 6.789 0 0 1 1.164-.096c.848 0 1.486.172 1.914.516.428.344.642.888.642 1.632v3.66H24.86l-.084-.576c-.24.232-.532.406-.876.522-.344.116-.764.174-1.26.174zm.348-.936c.376 0 .712-.064 1.008-.192.296-.128.54-.308.732-.54v-.996h-1.8c-.384 0-.662.072-.834.216-.172.144-.258.372-.258.684 0 .288.096.498.288.63.192.132.48.198.864.198zm4.44-4.872h1.2l.06.6a3.384 3.384 0 0 1 2.1-.72c.736 0 1.272.172 1.608.516.336.344.504.88.504 1.608v3.684h-1.296v-3.624c0-.44-.092-.748-.276-.924-.184-.176-.52-.264-1.008-.264-.296 0-.586.06-.87.18-.284.12-.522.276-.714.468v4.164h-1.308V8.4zm9.732 5.808c-1 0-1.756-.252-2.268-.756-.512-.504-.768-1.24-.768-2.208 0-.976.276-1.714.828-2.214.552-.5 1.312-.75 2.28-.75.384 0 .71.028.978.084.268.056.53.144.786.264V9.6c-.416-.208-.92-.312-1.512-.312-.68 0-1.19.152-1.53.456-.34.304-.51.804-.51 1.5 0 .688.158 1.188.474 1.5.316.312.83.468 1.542.468.568 0 1.084-.108 1.548-.324v.996c-.528.216-1.144.324-1.848.324zm6 0c-1.008 0-1.78-.248-2.316-.744-.536-.496-.804-1.24-.804-2.232 0-.936.236-1.662.708-2.178s1.172-.774 2.1-.774c.84 0 1.484.22 1.932.66.448.44.672 1.028.672 1.764v1.056h-4.164c.064.544.26.922.588 1.134.328.212.844.318 1.548.318a4.8 4.8 0 0 0 .882-.084c.3-.056.566-.128.798-.216v.96c-.504.224-1.152.336-1.944.336zm1.14-3.3v-.396c0-.408-.112-.718-.336-.93-.224-.212-.584-.318-1.08-.318-.592 0-1.006.128-1.242.384s-.354.676-.354 1.26H44.3zm3.84 3.3c-.48 0-.836-.116-1.068-.348-.232-.232-.348-.608-.348-1.128V6h1.308v6.612c0 .216.038.366.114.45.076.084.198.126.366.126.192 0 .376-.024.552-.072v.948a2.7 2.7 0 0 1-.924.144z"/>
    </g>
</svg>
