<svg xmlns="http://www.w3.org/2000/svg" width="64" height="64" viewBox="0 0 64 64">
    <path fill="#047afe" fill-rule="nonzero" d="M32 2C15.43 2 2 15.432 2 32c0 16.567 13.431 30 30 30 16.568 0 30-13.433 30-30C62 15.432 48.568 2 32 2zm0 10.537l17.753 11.07H14.247L32 12.537zm17.974 28.748h-.002a3.214 3.214 0 0 1-3.214 3.214H17.242a3.214 3.214 0 0 1-3.214-3.214V24.312c0-.188.019-.37.05-.55L31.04 34.339c.02.013.043.022.064.034l.068.035c.12.062.244.112.37.145l.039.008c.138.032.278.053.419.053h.002c.14 0 .28-.02.42-.053l.038-.008a1.798 1.798 0 0 0 .438-.18c.02-.012.043-.021.064-.034l16.962-10.577c.031.18.05.362.05.55v16.973z"/>
</svg>
