<svg xmlns="http://www.w3.org/2000/svg" width="32" height="32" viewBox="0 0 32 32">
    <defs>
        <radialGradient id="a" cx="20.499%" cy="87.392%" r="110.282%" fx="20.499%" fy="87.392%">
            <stop offset="0%" stop-color="#FAE100"/>
            <stop offset="5.44%" stop-color="#FADC04"/>
            <stop offset="11.67%" stop-color="#FBCE0E"/>
            <stop offset="18.29%" stop-color="#FCB720"/>
            <stop offset="25.14%" stop-color="#FE9838"/>
            <stop offset="30.54%" stop-color="#FF7950"/>
            <stop offset="49.22%" stop-color="#FF1C74"/>
            <stop offset="100%" stop-color="#6C1CD1"/>
        </radialGradient>
        <linearGradient id="b" x1="36.876%" x2="-154.04%" y1="42.618%" y2="-64.772%">
            <stop offset="0%" stop-color="#A1B5D8" stop-opacity="0"/>
            <stop offset="30.94%" stop-color="#90A2BD" stop-opacity=".31"/>
            <stop offset="75.54%" stop-color="#7C8B9C" stop-opacity=".757"/>
            <stop offset="100%" stop-color="#748290"/>
        </linearGradient>
        <linearGradient id="c" x1="50%" x2="50%" y1="41.256%" y2="119.349%">
            <stop offset="0%" stop-color="#FAE100" stop-opacity="0"/>
            <stop offset="30.68%" stop-color="#FCA800" stop-opacity=".306"/>
            <stop offset="62.75%" stop-color="#FE7300" stop-opacity=".627"/>
            <stop offset="86.85%" stop-color="#FF5200" stop-opacity=".867"/>
            <stop offset="100%" stop-color="#FF4500"/>
        </linearGradient>
        <linearGradient id="d" x1="31.61%" x2="1.216%" y1="31.067%" y2=".511%">
            <stop offset="0%" stop-color="#833AB4" stop-opacity="0"/>
            <stop offset="100%" stop-color="#833AB4"/>
        </linearGradient>
        <linearGradient id="e" x1="58.237%" x2="41.842%" y1="88.653%" y2="11.259%">
            <stop offset="0%" stop-color="#833AB4" stop-opacity="0"/>
            <stop offset="100%" stop-color="#833AB4"/>
        </linearGradient>
        <linearGradient id="f" x1="60.505%" x2="-15.972%" y1="60.505%" y2="-15.972%">
            <stop offset="0%" stop-color="#833AB4" stop-opacity="0"/>
            <stop offset="100%" stop-color="#833AB4"/>
        </linearGradient>
        <linearGradient id="g" x1="39.553%" x2="1.953%" y1="33.217%" y2="-6.349%">
            <stop offset="0%" stop-color="#833AB4" stop-opacity="0"/>
            <stop offset="100%" stop-color="#833AB4"/>
        </linearGradient>
        <linearGradient id="h" x1="81.589%" x2="17.231%" y1="18.191%" y2="83.452%">
            <stop offset="0%" stop-color="#833AB4"/>
            <stop offset="9.22%" stop-color="#9C3495"/>
            <stop offset="29.27%" stop-color="#DC2546"/>
            <stop offset="39.2%" stop-color="#FD1D1D"/>
            <stop offset="55.89%" stop-color="#FC6831"/>
            <stop offset="68.87%" stop-color="#FC9B40"/>
            <stop offset="75.21%" stop-color="#FCAF45"/>
            <stop offset="78.06%" stop-color="#FDB750"/>
            <stop offset="86.56%" stop-color="#FECB6A"/>
            <stop offset="94.15%" stop-color="#FFD87A"/>
            <stop offset="100%" stop-color="#FFDC80"/>
        </linearGradient>
    </defs>
    <g fill="none" fill-rule="evenodd">
        <g fill-rule="nonzero">
            <path fill="url(#a)" d="M27.52 5.008A5.098 5.098 0 0 0 22.993.48a84.57 84.57 0 0 0-17.984 0A5.098 5.098 0 0 0 .48 5.01a84.57 84.57 0 0 0 0 17.983 5.098 5.098 0 0 0 4.53 4.529c5.988.639 11.994.639 17.983 0a5.098 5.098 0 0 0 4.529-4.53 84.57 84.57 0 0 0 0-17.983z" transform="translate(2 2)"/>
            <path fill="url(#b)" d="M25.572 5.472a4.552 4.552 0 0 0-4.044-4.044 75.54 75.54 0 0 0-16.056 0 4.553 4.553 0 0 0-4.044 4.044 75.537 75.537 0 0 0 0 16.056 4.552 4.552 0 0 0 4.044 4.044c5.347.57 10.71.57 16.056 0a4.552 4.552 0 0 0 4.044-4.044c.57-5.347.57-10.71 0-16.056z" transform="translate(2 2)"/>
            <path fill="url(#c)" d="M1 22c.02.208.039.416.06.623.253 2.564 2.128 4.589 4.502 4.862a77.88 77.88 0 0 0 17.876 0c2.374-.273 4.249-2.298 4.502-4.862L28 22H1z" transform="translate(2 2)"/>
            <path fill="url(#d)" d="M27.517 22.92c.346-3.263.506-6.532.48-9.8L21.541 6.63c-.807-.926-1.985-1.504-3.37-1.554a120.987 120.987 0 0 0-8.55 0c-2.365.083-4.018 1.68-4.443 4.03-.074.414-.12.834-.178 1.252v6.886c.033.223.08.445.095.67.095 1.428.68 2.652 1.614 3.48l6.57 6.605a84.94 84.94 0 0 0 9.67-.484 5.157 5.157 0 0 0 4.568-4.593z" transform="translate(2 2)"/>
            <path fill="url(#e)" d="M27.523 23.008a5.079 5.079 0 0 1-4.508 4.514 84.2 84.2 0 0 1-9.541.476L7 21.516c.75.657 1.729 1.058 2.864 1.1 2.81.106 5.628.104 8.437.002 2.541-.092 4.38-1.975 4.46-4.519.084-2.701.084-5.41 0-8.111-.037-1.174-.449-2.207-1.13-2.988l6.366 6.376a84.635 84.635 0 0 1-.474 9.632z" transform="translate(2 2)"/>
            <path fill="url(#f)" d="M16.718 10.44a4.444 4.444 0 1 0-6.278 6.278L20.722 27c.544-.047 1.088-.1 1.632-.158a5.052 5.052 0 0 0 4.488-4.488c.058-.544.11-1.088.158-1.632L16.718 10.44z" transform="translate(2 2)"/>
            <path fill="url(#g)" d="M28 17.067l-8.948-8.631A1.155 1.155 0 0 0 18.143 8C17.512 8 17 8.494 17 9.103c0 .358.178.675.452.876L27.84 20c.07-.977.124-1.955.16-2.933z" transform="translate(2 2)"/>
            <path fill="url(#h)" d="M5 10.478c.06-.427.105-.857.18-1.28.43-2.403 2.108-4.037 4.505-4.12 2.887-.101 5.783-.106 8.669 0 2.61.094 4.5 2.054 4.58 4.7.088 2.812.088 5.63 0 8.44-.08 2.647-1.97 4.606-4.58 4.702-2.886.106-5.782.108-8.669-.002-2.61-.1-4.414-2.063-4.588-4.714-.016-.23-.064-.457-.097-.685v-7.041zm9.002 10.873c1.321 0 2.644.04 3.963-.01 2.068-.077 3.34-1.329 3.389-3.424.06-2.611.06-5.226 0-7.837-.049-2.095-1.322-3.376-3.39-3.42a184.441 184.441 0 0 0-7.875 0c-2.051.043-3.327 1.298-3.383 3.37-.07 2.644-.07 5.293 0 7.937.056 2.072 1.332 3.298 3.384 3.375 1.302.049 2.608.01 3.912.01z" transform="translate(2 2)"/>
            <g fill="#FFF">
                <path d="M7.005 12.485c.06-.426.105-.855.18-1.278.43-2.397 2.106-4.028 4.503-4.112 2.885-.1 5.779-.105 8.664 0 2.608.095 4.496 2.05 4.578 4.692.087 2.805.087 5.617 0 8.423-.082 2.641-1.97 4.597-4.578 4.692-2.885.106-5.78.108-8.664-.001-2.609-.1-4.412-2.06-4.586-4.705-.016-.23-.064-.456-.097-.684v-7.027zm8.997 10.851c1.32 0 2.642.04 3.96-.009 2.068-.078 3.34-1.327 3.388-3.418.06-2.606.06-5.215 0-7.821-.049-2.09-1.321-3.37-3.387-3.414a184.603 184.603 0 0 0-7.871 0c-2.051.044-3.326 1.296-3.382 3.364-.07 2.639-.07 5.282 0 7.92.056 2.069 1.33 3.292 3.382 3.37 1.302.048 2.607.008 3.91.008z"/>
                <path d="M16 11.358c-2.532 0-4.584 2.078-4.584 4.642 0 2.564 2.052 4.642 4.584 4.642 2.532 0 4.584-2.078 4.584-4.642 0-2.564-2.052-4.642-4.584-4.642zm0 7.686c-1.66 0-3.006-1.363-3.006-3.044S14.34 12.956 16 12.956c1.66 0 3.006 1.363 3.006 3.044S17.66 19.044 16 19.044zM21.942 11.146c0 .61-.488 1.105-1.09 1.105-.602 0-1.09-.495-1.09-1.105s.488-1.104 1.09-1.104c.602 0 1.09.494 1.09 1.104z"/>
            </g>
        </g>
    </g>
</svg>
