<svg xmlns="http://www.w3.org/2000/svg" xmlns:xlink="http://www.w3.org/1999/xlink" width="404" height="340" viewBox="0 0 404 340">
    <defs>
        <path id="b" d="M4.465 6L86 9.165 82.784 90 0 87.539z"/>
        <filter id="a" width="116.3%" height="116.7%" x="-8.1%" y="-6%" filterUnits="objectBoundingBox">
            <feOffset dy="2" in="SourceAlpha" result="shadowOffsetOuter1"/>
            <feGaussianBlur in="shadowOffsetOuter1" result="shadowBlurOuter1" stdDeviation="2"/>
            <feColorMatrix in="shadowBlurOuter1" values="0 0 0 0 0 0 0 0 0 0 0 0 0 0 0 0 0 0 0.302802666 0"/>
        </filter>
        <path id="d" d="M315 19.747L395.83 14 404 88.646 320.02 94z"/>
        <filter id="c" width="115.7%" height="117.5%" x="-7.9%" y="-6.2%" filterUnits="objectBoundingBox">
            <feOffset dy="2" in="SourceAlpha" result="shadowOffsetOuter1"/>
            <feGaussianBlur in="shadowOffsetOuter1" result="shadowBlurOuter1" stdDeviation="2"/>
            <feColorMatrix in="shadowBlurOuter1" values="0 0 0 0 0 0 0 0 0 0 0 0 0 0 0 0 0 0 0.302802666 0"/>
        </filter>
        <path id="f" d="M110.184 15.114L191.97 14 193 96.106 110 98z"/>
        <filter id="e" width="116.9%" height="116.7%" x="-8.4%" y="-6%" filterUnits="objectBoundingBox">
            <feOffset dy="2" in="SourceAlpha" result="shadowOffsetOuter1"/>
            <feGaussianBlur in="shadowOffsetOuter1" result="shadowBlurOuter1" stdDeviation="2"/>
            <feColorMatrix in="shadowBlurOuter1" values="0 0 0 0 0 0 0 0 0 0 0 0 0 0 0 0 0 0 0.302802666 0"/>
        </filter>
        <path id="h" d="M212.184 1.114L293.97 0 295 82.106 212 84z"/>
        <filter id="g" width="116.9%" height="116.7%" x="-8.4%" y="-6%" filterUnits="objectBoundingBox">
            <feOffset dy="2" in="SourceAlpha" result="shadowOffsetOuter1"/>
            <feGaussianBlur in="shadowOffsetOuter1" result="shadowBlurOuter1" stdDeviation="2"/>
            <feColorMatrix in="shadowBlurOuter1" values="0 0 0 0 0 0 0 0 0 0 0 0 0 0 0 0 0 0 0.302802666 0"/>
        </filter>
    </defs>
    <g fill="none" fill-rule="evenodd">
        <g stroke="#000" transform="translate(16 113)">
            <path stroke-linecap="round" stroke-linejoin="round" stroke-width="3" d="M27.421 5.489C10.374 23.599 7.055 46.817 16.773 69.493c4.192 9.781 16.811 18.359 28.163 13.581 13.522-5.69 18.44-29.639 19.393-41.162.773-9.349.89-18.777.287-28.137C63.738.144 34.634 2.345 26.691 6.097M24.375 56.218c8.64 9.7 16.474 7.487 24.375-1.822"/>
            <path stroke-linecap="round" stroke-linejoin="round" stroke-width="3" d="M34.938.812c-3.156.667-6.75.248-9.468 2C6.398 15.115 6.222 43.404 5.688 62.515M35.75.037c7.563 0 32.498-1.034 37.217 7.795 7.44 13.924 4.98 44.53 2.979 58.742M65.813 8.119C69.42 27.622 70.08 46.85 67.51 66.574M24.375.812C9.361 17.779.516 37.339 0 60.892M17.063 109.603c.489-4.047.32-8.18 1.467-12.142 2.22-7.66 19.664-17.642 28.67-10.666 7.838 6.071 7.496 15.794 8.862 23.62M38.188 84.436c-3.144 18.242-1.816 7.973-3.25 30.851"/>
            <path stroke-linecap="round" stroke-linejoin="round" stroke-width="3" d="M17.875 127.4c3.489-2.542 6.737-5.325 10.466-7.627 2.725-1.682 5.702-5.423 8.81-4.269 6.997 2.6 18.735 7.61 16.094 13.521-1.079 2.413-27.695-.857-33.436-1.481l-1.934-.143zM30.12 129.901c0 29.055 2.839 17.792-2.495 34.099M39.1 129.901c0 28.876 2.744 17.626-2.538 34.099"/>
            <ellipse cx="27.625" cy="30.851" fill="#000" rx="1.125" ry="2.748"/>
            <ellipse cx="46.313" cy="30.851" fill="#000" rx="1.125" ry="2.748"/>
        </g>
        <g stroke="#000" transform="translate(115 118)">
            <ellipse cx="17.027" cy="46.388" fill="#000" rx="1.122" ry="2.755"/>
            <ellipse cx="39.73" cy="46.388" fill="#000" rx="1.122" ry="2.755"/>
            <path stroke-linecap="round" stroke-linejoin="round" stroke-width="3" d="M37.25 0C12.43 0 2.595 7.244.405 33.206c-1.314 15.572-.644 45.853 21.23 49 6.217.893 12.574 1.013 18.835.507 7.262-.587 13.304-13.45 15.252-18.161 9.076-21.948 3.675-48.33-15.86-62.182L37.25 0zM23.514 1.628c.644 18.017 16.802 24.12 32.432 26.042M31.622 3.255c2.65 13.59 12.533 18.674 24.324 22.788M17.838 63.147c7.298 12.183 16.086 10.76 22.703-1.296"/>
            <path stroke-linecap="round" stroke-linejoin="round" stroke-width="3" d="M9.938 107.185c.046-3.014-.577-6.12.136-9.044C13.04 85.987 30.69 79.136 40.861 85.337c7.688 4.688 7.337 14.291 7.788 22.089M31.622 82.197L30 116.377M14.698 152.562c0-14.474-1.422-13.836 6.296-29.507 3.51-7.13 12.638-11.244 16.958-2.686 2.758 5.465 5.716 10.93 7.317 16.688 1.448 5.206 1.172 10.629 1.758 15.943"/>
        </g>
        <g stroke="#000" transform="translate(206 112)">
            <ellipse cx="36.466" cy="39.75" fill="#000" rx="1.121" ry="2.745"/>
            <path stroke-linecap="round" stroke-linejoin="round" stroke-width="3" d="M35.655 59.685c4.166 12.248 18.951 10.646 22.69-1.277M45.38 82.745l-21.07 25.96M51.862 81.934l22.69 24.336"/>
            <ellipse cx="59.155" cy="39.75" fill="#000" rx="1.121" ry="2.745"/>
            <path stroke-linecap="round" stroke-linejoin="round" stroke-width="3" d="M27.135 22.927c-10.602 18.197-6.499 65.647 24.666 58.226 22.168-5.279 24.42-32.167 20.194-49.929-1.038-4.362-2.638-16.363-19.273-17.433-8.747 0-20.274.017-25.587 9.136zM25.12 66.519C16.396 78.073 1.39 62.244 9.74 52.729"/>
            <path stroke-linecap="round" stroke-linejoin="round" stroke-width="3" d="M9.736 52.821c-7.861-2.995-14.182-8.013-5.688-16.104.604-.575 2.553-1.42 5.848-2.534-2.738-6.089-5.848-8.607-.16-15.934 4.147-5.342 13.647-3.072 14.483-3.517.773-.413-6.914-9.246 5.566-12.612 8.05-2.17 12.65 2.782 13.516 9.679C43.445 12.942 43.654 0 56.831 0c8.15 0 12.225 3.956 12.225 11.868 5.086-5.13 13.943-7.395 18.719 6.38 5.59 16.125-7.16 17.935-5.69 17.935 6.671 0 14.193 3.565 11.264 12.464-2.952 8.97-13.09 6.734-12.61 6.946 4.955 2.193 4.955 7.51 1.346 11.367-3.61 3.857-11.884 3.834-12.867-.675M48.216 81.122l-.174 30.561M32.745 118.283c2.906-1.514 12.152-6.66 15.507-6.318 5.352.545 8.502 5.458 12.971 7.935 2.121 1.175 4.408 2.157 6.755 2.995 2.008.716 8.016.58 6.254 1.647-4.806 2.914-25.794 3.92-30.314 3.562-4.893-.386-8.007-.463-12.674-1.73-5.303-1.438-7.936-4.128-6.582-4.382l8.083-3.709zM42.948 128.173L38.086 159M51.862 128.173c8.005 23.385 3.306 13.27 12.966 30.827"/>
        </g>
        <g stroke="#000" transform="translate(314 120)">
            <path stroke-linecap="round" stroke-linejoin="round" stroke-width="3" d="M3.185 17.523c13.332 0 58.06-6.383 65.686-2.354 5.505 2.908 1.989 12.267 2.376 18.459.731 11.663 1.465 21.361-3.888 31.852-6.773 13.274-30.488 9.795-41.245 9.795-12.429 0-16.315-5.91-18.588-8.36C-4.469 53.98 1.471 22.873 1.471 20.197c0-1.784.57-2.675 1.714-2.675z"/>
            <ellipse cx="19.636" cy="34.181" fill="#000" rx="1.136" ry="2.755"/>
            <ellipse cx="57.273" cy="34.181" fill="#000" rx="1.136" ry="2.755"/>
            <path stroke-linecap="round" stroke-linejoin="round" stroke-width="3" d="M22.09 52.202c15.76 14.73 15.5 13.439 32.728-.93M36 76.5V123.703M13.91 112.94c9.52-13.032 17.267-35.328 33.47-19.687 6.71 6.477 12.595 13.789 18.893 20.683M18.818 153c1.2-4.75 2.068-9.57 3.6-14.252.985-3.012 2.372-5.934 3.93-8.769 12.26-22.301 34.368 21.919 35.016 22.832M20.455 16.277L9 6.51M28.138 16.277c0-13.772.345-8.394-.32-16.277M36 14.649l9.818-11.394M49.09 13.835l11.455-8.138"/>
        </g>
        <use fill="#000" filter="url(#a)" xlink:href="#b"/>
        <use fill="#FFE37C" xlink:href="#b"/>
        <text fill="#000" font-family="Kanit-Regular, Kanit" font-size="14" transform="rotate(1 43.69 50.314)">
            <tspan x="11.988" y="54.814">สะพานบุญ</tspan>
        </text>
        <use fill="#000" filter="url(#c)" xlink:href="#d"/>
        <use fill="#FFE37C" xlink:href="#d"/>
        <use fill="#000" filter="url(#e)" xlink:href="#f"/>
        <use fill="#FFE37C" xlink:href="#f"/>
        <text fill="#000" font-family="Kanit-Regular, Kanit" font-size="14" transform="rotate(1 149.364 60.068)">
            <tspan x="131.074" y="64.568">การให้</tspan>
        </text>
        <g>
            <use fill="#000" filter="url(#g)" xlink:href="#h"/>
            <use fill="#FFE37C" xlink:href="#h"/>
        </g>
        <text fill="#000" font-family="Kanit-Regular, Kanit" font-size="14">
            <tspan x="234" y="49">บริจาค</tspan>
        </text>
        <text fill="#000" font-family="Kanit-Regular, Kanit" font-size="14" transform="rotate(-2 358.891 56.889)">
            <tspan x="331.253" y="61.389">ช่วยเหลือ</tspan>
        </text>
        <rect width="369" height="11" x="18" y="298" fill="#E9E9E9" rx="5.5"/>
    </g>
</svg>
