<svg xmlns="http://www.w3.org/2000/svg" width="24" height="24" viewBox="0 0 24 24">
    <g fill="none" fill-rule="evenodd">
        <path fill="#00C400" d="M22.91 11.599c.05-.266.076-.49.087-.666a8.37 8.37 0 0 0-.01-.855c-.267-4.642-5.083-8.34-10.985-8.34-6.074 0-10.997 3.916-10.997 8.747 0 4.44 4.16 8.107 9.548 8.672.33.034.567.331.53.66l-.229 2.066a.6.6 0 0 0 .858.605c4.552-2.198 7.275-4.458 8.9-6.416.296-.357 1.261-1.708 1.458-2.063a7.362 7.362 0 0 0 .84-2.41z"/>
        <path fill="#FFF" d="M5.955 12.257V8.572a.563.563 0 0 0-1.125 0v4.247c0 .311.252.563.562.563h2.25a.563.563 0 1 0 0-1.125H5.955zM9.425 13.382h-.246a.44.44 0 0 1-.44-.44V8.45a.44.44 0 0 1 .44-.44h.246a.44.44 0 0 1 .44.44v4.493a.44.44 0 0 1-.44.44zM13.97 8.572v2.595s-2.246-2.93-2.28-2.969a.56.56 0 0 0-.441-.188.578.578 0 0 0-.541.586v4.223a.563.563 0 1 0 1.125 0v-2.578s2.28 2.955 2.314 2.987a.56.56 0 0 0 .38.154c.313.003.569-.274.569-.586V8.572a.563.563 0 0 0-1.125 0zM19.314 8.572a.563.563 0 0 0-.562-.562h-2.25a.563.563 0 0 0-.563.562v4.247c0 .311.252.563.563.563h2.25a.563.563 0 1 0 0-1.125h-1.688v-.999h1.688a.563.563 0 0 0 0-1.125h-1.688v-.998h1.688c.31 0 .562-.252.562-.563z"/>
    </g>
</svg>
