<svg xmlns="http://www.w3.org/2000/svg" xmlns:xlink="http://www.w3.org/1999/xlink" width="42" height="42" viewBox="0 0 42 42">
    <defs>
        <path id="b" d="M36.862 20.215c.074-.384.11-.706.127-.96a11.958 11.958 0 0 0-.015-1.231C36.586 11.332 29.58 6 20.995 6 12.161 6 5 11.645 5 18.61c0 6.4 6.05 11.687 13.888 12.5.48.05.825.479.772.953l-.334 2.977c-.076.676.63 1.168 1.247.872 6.623-3.167 10.583-6.426 12.947-9.249.43-.514 1.834-2.462 2.12-2.974a10.551 10.551 0 0 0 1.222-3.474z"/>
        <filter id="a" width="140.6%" height="143.3%" x="-20.3%" y="-18.3%" filterUnits="objectBoundingBox">
            <feOffset dy="1" in="SourceAlpha" result="shadowOffsetOuter1"/>
            <feGaussianBlur in="shadowOffsetOuter1" result="shadowBlurOuter1" stdDeviation="2"/>
            <feColorMatrix in="shadowBlurOuter1" values="0 0 0 0 0 0 0 0 0 0 0 0 0 0 0 0 0 0 0.5 0"/>
        </filter>
    </defs>
    <g fill="none" fill-rule="evenodd">
        <use fill="#000" filter="url(#a)" xlink:href="#b"/>
        <use fill="#00C400" xlink:href="#b"/>
        <path fill="#FFF" d="M12.667 21.325v-5.487a.836.836 0 0 0-.834-.838.836.836 0 0 0-.833.838v6.324c0 .463.373.838.833.838h3.334c.46 0 .833-.375.833-.838a.836.836 0 0 0-.833-.837h-2.5z"/>
        <path fill="#FFF" d="M17.219 23h-.438c-.431 0-.781-.293-.781-.655v-6.69c0-.362.35-.655.781-.655h.438c.431 0 .781.293.781.655v6.69c0 .362-.35.655-.781.655zM23.461 15.838V19.7s-3.072-4.363-3.118-4.42a.738.738 0 0 0-.604-.28c-.418.017-.739.415-.739.871v6.29c0 .463.344.838.77.838.424 0 .769-.375.769-.838v-3.84s3.118 4.402 3.164 4.449c.136.14.319.227.52.229.428.004.777-.407.777-.873v-6.29c0-.462-.344-.837-.77-.837-.424 0-.769.375-.769.838zM32 15.838a.836.836 0 0 0-.833-.838h-3.334a.836.836 0 0 0-.833.838v6.324c0 .463.373.838.833.838h3.334c.46 0 .833-.375.833-.838a.836.836 0 0 0-.833-.837h-2.5v-1.487h2.5c.46 0 .833-.375.833-.838a.836.836 0 0 0-.833-.838h-2.5v-1.487h2.5c.46 0 .833-.375.833-.837z"/>
    </g>
</svg>
