<svg xmlns="http://www.w3.org/2000/svg" width="24" height="24" viewBox="0 0 24 24">
    <path fill="#9EADB5" fill-rule="evenodd" d="M7.823 3.823C9.038 2.608 10.497 2 12.198 2s3.168.608 4.401 1.823c1.233 1.215 1.849 2.69 1.849 4.427 0 1.77-.52 3.802-1.563 6.094-1.041 2.291-2.083 4.149-3.125 5.573L12.198 22c-.174-.208-.4-.503-.677-.885-.278-.382-.773-1.12-1.485-2.214a35.03 35.03 0 0 1-1.875-3.23C7.623 14.614 7.128 13.39 6.677 12 6.226 10.611 6 9.361 6 8.25c0-1.736.608-3.212 1.823-4.427zm2.292 6.615a2.94 2.94 0 0 0 2.083.833c.799 0 1.493-.287 2.083-.86.59-.572.886-1.258.886-2.057 0-.798-.295-1.493-.886-2.083-.59-.59-1.284-.886-2.083-.886-.799 0-1.484.296-2.057.886-.573.59-.86 1.285-.86 2.083 0 .799.278 1.493.834 2.084z"/>
</svg>
