<svg xmlns="http://www.w3.org/2000/svg" width="64" height="20" viewBox="0 0 64 20">
    <g fill="none" fill-rule="evenodd">
        <rect width="63" height="19" x=".5" y=".5" fill="#B6B6B6" stroke="#B6B6B6" rx="4"/>
        <path fill="#FFF" fill-rule="nonzero" d="M10 6.36h3.444c.856 0 1.502.236 1.938.708.436.472.654 1.096.654 1.872 0 .768-.238 1.384-.714 1.848-.476.464-1.118.696-1.926.696h-2.088v2.604H10V6.36zm3.156 4.092c.504 0 .892-.134 1.164-.402.272-.268.408-.638.408-1.11 0-.496-.128-.88-.384-1.152-.256-.272-.632-.408-1.128-.408h-1.908v3.072h1.848zm6.804 3.756c-1.008 0-1.78-.248-2.316-.744-.536-.496-.804-1.24-.804-2.232 0-.936.236-1.662.708-2.178s1.172-.774 2.1-.774c.84 0 1.484.22 1.932.66.448.44.672 1.028.672 1.764v1.056h-4.164c.064.544.26.922.588 1.134.328.212.844.318 1.548.318a4.8 4.8 0 0 0 .882-.084c.3-.056.566-.128.798-.216v.96c-.504.224-1.152.336-1.944.336zm1.14-3.3v-.396c0-.408-.112-.718-.336-.93-.224-.212-.584-.318-1.08-.318-.592 0-1.006.128-1.242.384s-.354.676-.354 1.26H21.1zM23.524 8.4h1.2l.06.6a3.384 3.384 0 0 1 2.1-.72c.736 0 1.272.172 1.608.516.336.344.504.88.504 1.608v3.684H27.7v-3.624c0-.44-.092-.748-.276-.924-.184-.176-.52-.264-1.008-.264-.296 0-.586.06-.87.18-.284.12-.522.276-.714.468v4.164h-1.308V8.4zm9.288 5.808c-.824 0-1.462-.218-1.914-.654-.452-.436-.678-1.146-.678-2.13 0-.664.116-1.232.348-1.704.232-.472.552-.83.96-1.074a2.682 2.682 0 0 1 1.404-.366c.336 0 .64.04.912.12.272.08.532.204.78.372V6h1.308v8.088h-1.116l-.084-.564c-.264.24-.548.414-.852.522a3.19 3.19 0 0 1-1.068.162zm.348-.984c.584 0 1.072-.2 1.464-.6V9.78c-.376-.336-.848-.504-1.416-.504-.552 0-.968.184-1.248.552-.28.368-.42.904-.42 1.608 0 .664.126 1.128.378 1.392s.666.396 1.242.396zm5.04-7.092h1.428v1.08H38.2v-1.08zm.108 3.264h-.864l.12-.996h2.052v5.688h-1.308V9.396zM41.14 8.4h1.2l.06.6a3.384 3.384 0 0 1 2.1-.72c.736 0 1.272.172 1.608.516.336.344.504.88.504 1.608v3.684h-1.296v-3.624c0-.44-.092-.748-.276-.924-.184-.176-.52-.264-1.008-.264-.296 0-.586.06-.87.18-.284.12-.522.276-.714.468v4.164H41.14V8.4zm9.24 7.8c-.44 0-.87-.028-1.29-.084a5.858 5.858 0 0 1-1.062-.228V14.88c.304.104.664.184 1.08.24.416.056.82.084 1.212.084.608 0 1.036-.034 1.284-.102.248-.068.372-.21.372-.426 0-.168-.066-.286-.198-.354s-.374-.102-.726-.102h-1.536c-.504 0-.888-.094-1.152-.282-.264-.188-.396-.458-.396-.81 0-.248.072-.47.216-.666.144-.196.356-.342.636-.438-.64-.312-.96-.868-.96-1.668 0-.72.216-1.246.648-1.578.432-.332 1.088-.498 1.968-.498.32 0 .668.04 1.044.12h2.088l-.036.852h-.96c.296.264.444.632.444 1.104 0 .624-.186 1.106-.558 1.446-.372.34-.926.51-1.662.51-.192 0-.428-.02-.708-.06a1.58 1.58 0 0 0-.66.198c-.184.108-.276.246-.276.414 0 .12.048.206.144.258.096.052.256.078.48.078h1.596c.568 0 1.006.122 1.314.366.308.244.462.598.462 1.062 0 .552-.234.952-.702 1.2-.468.248-1.17.372-2.106.372zm.096-4.716c.52 0 .882-.086 1.086-.258.204-.172.306-.474.306-.906 0-.432-.104-.742-.312-.93-.208-.188-.568-.282-1.08-.282-.496 0-.854.094-1.074.282-.22.188-.33.498-.33.93 0 .416.106.714.318.894.212.18.574.27 1.086.27z"/>
    </g>
</svg>
