<svg xmlns="http://www.w3.org/2000/svg" width="64" height="20" viewBox="0 0 64 20">
    <g fill="none" fill-rule="evenodd">
        <rect width="64" height="20" fill="#FFBB42" rx="4"/>
        <path fill="#FFF" fill-rule="nonzero" d="M16 5.224h3.484c.824 0 1.436.212 1.836.635.4.424.6 1.02.6 1.79 0 .54-.135.998-.406 1.37-.27.373-.653.634-1.147.783.133.094.24.198.318.312.078.114.16.277.247.489l.953 2.2h-1.318l-.93-2.118c-.094-.212-.204-.359-.33-.441-.125-.083-.325-.124-.6-.124h-1.424v2.684H16v-7.58zm3.143 3.86c.996 0 1.495-.478 1.495-1.436 0-.95-.46-1.424-1.378-1.424h-1.977v2.86h1.86zm6.332 3.837c-.989 0-1.746-.243-2.272-.73-.525-.486-.788-1.216-.788-2.189 0-.918.231-1.63.694-2.136.463-.506 1.15-.76 2.06-.76.824 0 1.456.217 1.895.648.44.432.66 1.009.66 1.73v1.036h-4.085c.063.534.255.905.577 1.113.321.208.828.312 1.518.312.283 0 .57-.028.865-.083a4.59 4.59 0 0 0 .783-.212v.942c-.494.22-1.13.33-1.907.33zm1.118-3.236v-.389c0-.4-.11-.704-.33-.912-.219-.208-.572-.312-1.059-.312-.58 0-.986.126-1.218.377-.231.25-.347.663-.347 1.236h2.954zM29.69 5h1.4v1.06h-1.4V5zm-.412 10.558c-.455 0-.844-.063-1.165-.188v-.93c.243.078.482.118.718.118.368 0 .625-.065.77-.195.146-.13.218-.35.218-.665V8.202h-.847l.118-.977h2v6.591c0 .541-.154.967-.464 1.277-.31.31-.76.465-1.348.465zm6.12-2.637c-.988 0-1.745-.243-2.271-.73-.526-.486-.789-1.216-.789-2.189 0-.918.232-1.63.695-2.136.463-.506 1.15-.76 2.06-.76.823 0 1.455.217 1.895.648.439.432.659 1.009.659 1.73v1.036H33.56c.063.534.255.905.577 1.113.322.208.828.312 1.518.312.283 0 .571-.028.866-.083a4.59 4.59 0 0 0 .782-.212v.942c-.494.22-1.13.33-1.906.33zm1.119-3.236v-.389c0-.4-.11-.704-.33-.912-.22-.208-.573-.312-1.06-.312-.58 0-.986.126-1.217.377-.232.25-.348.663-.348 1.236h2.955zm5.12 3.236c-.981 0-1.723-.247-2.225-.741s-.753-1.216-.753-2.166c0-.957.27-1.681.812-2.171.542-.49 1.287-.736 2.236-.736.377 0 .697.027.96.082.263.055.52.142.77.26v.953c-.407-.204-.902-.306-1.482-.306-.667 0-1.168.149-1.501.447-.334.298-.5.788-.5 1.471 0 .675.155 1.165.465 1.471.31.306.814.46 1.512.46.557 0 1.063-.106 1.518-.318v.977c-.517.212-1.122.317-1.812.317zm4.896 0c-.588 0-1.032-.155-1.33-.464-.298-.31-.447-.748-.447-1.313V8.225h-.824v-1h.824V5.942l1.271-.389v1.672h1.483l-.082 1h-1.4v2.848c0 .322.072.548.217.677.145.13.39.195.736.195.211 0 .435-.04.67-.118v.906c-.306.126-.678.188-1.118.188z"/>
    </g>
</svg>
