<svg xmlns="http://www.w3.org/2000/svg" width="64" height="64" viewBox="0 0 64 64">
    <path fill="#047afe" fill-rule="nonzero" d="M32 2C15.433 2 2 15.433 2 32s13.433 30 30 30c16.568 0 30-13.433 30-30S48.568 2 32 2zm15.842 43.774l-2.402 2.402c-.429.428-1.684.695-1.725.695a28.349 28.349 0 0 1-20.291-8.294 28.383 28.383 0 0 1-8.299-20.362c0-.003.275-1.223.703-1.647l2.402-2.403c.88-.883 2.568-1.282 3.75-.886l.506.169c1.18.395 2.417 1.699 2.743 2.9l1.208 4.435c.326 1.205-.113 2.919-.992 3.798l-1.604 1.604a17.037 17.037 0 0 0 11.98 11.983l1.603-1.605c.883-.883 2.596-1.322 3.798-.997l4.434 1.213c1.202.33 2.505 1.56 2.9 2.74l.17.512c.391 1.18-.005 2.867-.884 3.743z"/>
</svg>
