<svg xmlns="http://www.w3.org/2000/svg" width="32" height="32" viewBox="0 0 32 32">
    <g fill="none" fill-rule="evenodd">
        <path fill="#50ABF1" fill-rule="nonzero" d="M16 2C8.268 2 2 8.268 2 16s6.268 14 14 14 14-6.268 14-14S23.732 2 16 2z"/>
        <path fill="#FFF" d="M24 10.539a6.55 6.55 0 0 1-1.885.516 3.29 3.29 0 0 0 1.443-1.815 6.572 6.572 0 0 1-2.084.796 3.283 3.283 0 0 0-5.594 2.994A9.319 9.319 0 0 1 9.114 9.6a3.282 3.282 0 0 0 1.016 4.382 3.26 3.26 0 0 1-1.487-.41v.04a3.284 3.284 0 0 0 2.633 3.219 3.272 3.272 0 0 1-1.483.056 3.286 3.286 0 0 0 3.067 2.28A6.587 6.587 0 0 1 8 20.525 9.287 9.287 0 0 0 13.031 22c6.038 0 9.34-5 9.34-9.338 0-.142-.003-.284-.01-.424A6.656 6.656 0 0 0 24 10.539z"/>
    </g>
</svg>
