<svg xmlns="http://www.w3.org/2000/svg" width="32" height="32" viewBox="0 0 32 32">
    <g fill="#047AFE" fill-rule="nonzero">
        <path d="M20.598 20.75c-.269.282-.621.423-.974.423s-.705-.141-.974-.422l-1.725-1.802v7.612c0 .795-.617 1.439-1.378 1.439-.761 0-1.378-.644-1.378-1.44v-7.708l-.6.628-1.218 1.271c-.27.281-.622.422-.974.422-.353 0-.706-.14-.975-.422a1.477 1.477 0 0 1-.38-1.271v-.002c.006-.032.015-.063.023-.095a1.377 1.377 0 0 1 .154-.388c.015-.026.028-.05.044-.075.047-.071.099-.14.16-.203l1.96-2.048 2.153-2.248c.27-.281.622-.421.974-.421h.02c.352 0 .705.14.974.42l2.152 2.249 1.961 2.048c.061.063.113.132.159.202.016.025.03.05.045.076a1.533 1.533 0 0 1 .112.242c.016.048.029.095.04.143.009.034.02.066.025.1.077.447-.048.926-.38 1.27z"/>
        <path d="M5 7.428C5 5.506 6.896 4 9.316 4h13.368C25.104 4 27 5.506 27 7.428v9.252c0 1.625-1.356 2.948-3.237 3.32a3.474 3.474 0 0 0-1.016-2.123l-.554-.55h.491c.98 0 1.518-.486 1.518-.647V7.428c0-.16-.538-.646-1.518-.646H9.316c-.98 0-1.518.485-1.518.646v9.252c0 .16.538.646 1.518.646h.42l-.554.551a3.472 3.472 0 0 0-1.013 2.11C6.324 19.594 5 18.284 5 16.68V7.428z"/>
    </g>
</svg>
