<svg xmlns="http://www.w3.org/2000/svg" width="24" height="24" viewBox="0 0 24 24">
    <path fill="#FFF" fill-rule="nonzero" d="M12 2c5.523 0 10 4.477 10 10s-4.477 10-10 10S2 17.523 2 12 6.477 2 12 2zm-.252 3c-.412 0-.819.078-1.22.234a4.514 4.514 0 0 0-1.085.595c-.321.24-.58.502-.775.783-.196.281-.294.548-.294.799v2.41c0 .473.118 1.075.354 1.808.236.734.605 1.301 1.107 1.703a.957.957 0 0 1 .361.874c-.03.16-.092.309-.188.444a.919.919 0 0 1-.369.31l-4.232 2.003c-.06.02-.143.068-.249.143-.105.076-.158.214-.158.415v.979l13.48-.015v-.934c0-.261-.062-.425-.188-.49a1.574 1.574 0 0 0-.203-.098l-4.202-1.989a.976.976 0 0 1-.49-1.258.929.929 0 0 1 .294-.384c.522-.402.89-.972 1.107-1.71.216-.738.324-1.339.324-1.8V7.41c0-.261-.1-.533-.302-.814-.2-.281-.459-.54-.775-.776a4.478 4.478 0 0 0-1.085-.587A3.372 3.372 0 0 0 11.748 5z"/>
</svg>
