<svg xmlns="http://www.w3.org/2000/svg" width="32" height="32" viewBox="0 0 32 32">
    <path fill="#047AFE" fill-rule="evenodd" d="M27.429 16.762c-1.414-2.188-3.349-4.063-5.67-5.253a6.614 6.614 0 0 1 .908 3.348A6.675 6.675 0 0 1 16 21.524a6.675 6.675 0 0 1-6.667-6.667c0-1.175.313-2.336.908-3.348-2.321 1.19-4.256 3.065-5.67 5.253C7.116 20.69 11.223 23.429 16 23.429s8.884-2.739 11.429-6.667zm-10.715-5.714a.724.724 0 0 0-.714-.715c-2.485 0-4.524 2.039-4.524 4.524 0 .387.328.714.714.714a.724.724 0 0 0 .715-.714A3.112 3.112 0 0 1 16 11.762a.724.724 0 0 0 .714-.714zm12.62 5.714c0 .372-.12.714-.298 1.027-2.738 4.509-7.753 7.544-13.036 7.544-5.283 0-10.298-3.05-13.036-7.544-.178-.313-.297-.655-.297-1.027 0-.372.119-.714.297-1.027C5.702 11.241 10.717 8.19 16 8.19c5.283 0 10.298 3.051 13.036 7.545.178.313.297.655.297 1.027z"/>
</svg>
