<svg xmlns="http://www.w3.org/2000/svg" width="60" height="60" viewBox="0 0 60 60">
    <g fill="none" fill-rule="evenodd">
        <circle cx="30" cy="30" r="30" fill="#047AFE"/>
        <path fill="#FFF" fill-rule="nonzero" d="M45.894 36.33l2.731-2.732a4.44 4.44 0 0 0-1.848-7.38 4.404 4.404 0 0 0 .858-2.624 4.405 4.405 0 0 0-1.3-3.136 4.405 4.405 0 0 0-3.284-1.297 4.426 4.426 0 0 0-4.577-4.577l.002-.149a4.406 4.406 0 0 0-1.299-3.136 4.44 4.44 0 0 0-6.272 0l-.944.944-.944-.944A4.405 4.405 0 0 0 25.881 10a4.407 4.407 0 0 0-3.136 1.299 4.422 4.422 0 0 0-1.293 3.284 4.408 4.408 0 0 0-3.286 1.295 4.424 4.424 0 0 0-1.293 3.284l-.15-.003a4.405 4.405 0 0 0-3.136 1.298 4.405 4.405 0 0 0-1.3 3.137c0 .956.301 1.867.858 2.622a4.44 4.44 0 0 0-1.86 7.37l.013.014 2.735 2.734a4.491 4.491 0 0 0 .535.46l-.809.81c-.787.786-1.187 1.858-1.128 3.017a4.556 4.556 0 0 0 1.348 2.987l4.627 4.626a4.389 4.389 0 0 0 3.112 1.288c1.127 0 2.255-.43 3.113-1.288l2.15-2.15a14.213 14.213 0 0 0 5.96 0l2.15 2.15a4.389 4.389 0 0 0 3.113 1.288c1.127 0 2.254-.43 3.112-1.288l4.627-4.626c1.716-1.716 1.91-4.314.434-5.79l-.985-.986.486-.486a.784.784 0 0 0 .016-.016zM24.438 12.992a2.028 2.028 0 0 1 1.443-.598c.545 0 1.058.212 1.444.598l3.663 3.663a2.044 2.044 0 0 1 0 2.887 2.028 2.028 0 0 1-1.443.598 2.028 2.028 0 0 1-1.445-.6l-3.661-3.66-.01-.01a2.044 2.044 0 0 1 .009-2.878zm-4.585 7.46a2.044 2.044 0 0 1 .005-2.881 2.03 2.03 0 0 1 1.444-.598 2.027 2.027 0 0 1 1.443.598l.004.004 3.659 3.659.007.007.91.909c.385.386.597.898.597 1.444 0 .545-.212 1.058-.597 1.443a2.028 2.028 0 0 1-1.444.598 2.027 2.027 0 0 1-1.458-.612l-.897-.898a.047.047 0 0 1-.004-.004l-3.664-3.663-.005-.006zM15.28 22.15a2.027 2.027 0 0 1 1.442-.598c.546 0 1.058.213 1.444.598l3.667 3.668c.792.796.79 2.088-.003 2.883a2.03 2.03 0 0 1-1.444.597 2.027 2.027 0 0 1-1.443-.598l-.015-.014-3.637-3.637-.012-.012a2.027 2.027 0 0 1-.598-1.443c0-.545.213-1.058.599-1.444zm-2.278 9.768l-.014-.014a2.043 2.043 0 0 1 1.445-3.483c.545 0 1.058.213 1.444.599l2.747 2.747c.796.795.796 2.09 0 2.886a2.028 2.028 0 0 1-1.443.598c-.1 0-.2-.007-.297-.021l-.022-.004a2.026 2.026 0 0 1-1.116-.564l-.01-.01-2.734-2.734zM26.916 43.61l-.03-.006a1.211 1.211 0 0 0-.072-.016l-.054-.008-.06-.006a.873.873 0 0 0-.113-.004.977.977 0 0 0-.067.004l-.049.004a1.157 1.157 0 0 0-.23.05l-.051.018-.06.023a1.272 1.272 0 0 0-.149.079l-.051.033a1.187 1.187 0 0 0-.147.12l-.022.019-2.623 2.623a2.01 2.01 0 0 1-2.84 0l-4.626-4.626a2.168 2.168 0 0 1-.65-1.417c-.024-.474.128-.901.43-1.203l1.653-1.653.076.002a4.407 4.407 0 0 0 3.136-1.3 4.44 4.44 0 0 0 .993-4.75 4.408 4.408 0 0 0 2.212-1.202 4.413 4.413 0 0 0 1.252-2.504c.357.092.729.14 1.107.14a4.406 4.406 0 0 0 3.136-1.3 4.406 4.406 0 0 0 1.3-3.135c0-.378-.048-.749-.14-1.106a4.398 4.398 0 0 0 2.503-1.254 4.44 4.44 0 0 0 0-6.271l-1.026-1.028.944-.943a2.044 2.044 0 0 1 2.887 0c.385.385.597.897.597 1.443 0 .545-.212 1.058-.597 1.443a1.193 1.193 0 0 0 0 1.693 1.197 1.197 0 0 0 1.692 0 2.044 2.044 0 0 1 2.887 0 2.044 2.044 0 0 1 0 2.887 1.193 1.193 0 0 0 0 1.692 1.197 1.197 0 0 0 1.692 0 2.03 2.03 0 0 1 1.444-.598c.545 0 1.058.212 1.443.598.386.386.598.899.598 1.444 0 .538-.207 1.044-.582 1.427l-.017.016-1.716 1.717a1.197 1.197 0 0 0-.097 1.583l.061.079c.371.475 1.038.6 1.556.291a2.039 2.039 0 0 1 2.487.312 2.044 2.044 0 0 1 0 2.887l-2.747 2.746-.016.017-5.896 5.896a11.8 11.8 0 0 1-11.358 3.044zm17.769-4.1c.525.526.322 1.65-.435 2.407l-4.626 4.626a2.01 2.01 0 0 1-2.84 0l-1.273-1.273a14.168 14.168 0 0 0 4.455-3.011l3.733-3.733.986.985z"/>
    </g>
</svg>
