<svg xmlns="http://www.w3.org/2000/svg" width="60" height="60" viewBox="0 0 60 60">
    <g fill="none" fill-rule="evenodd">
        <circle cx="30" cy="30" r="30" fill="#047AFE"/>
        <path fill="#FFF" fill-rule="nonzero" d="M28.705 49.303c.339.328.394.928.123 1.339-.155.235-.383.358-.614.358a.701.701 0 0 1-.49-.208 15.772 15.772 0 0 1-2.576-3.282c-.253-.427-.174-1.023.178-1.33.352-.308.843-.211 1.097.216a13.967 13.967 0 0 0 2.282 2.907zM44.45 25.57c-.432-.232-.58-.747-.33-1.15.25-.402.802-.54 1.233-.307a15.669 15.669 0 0 1 3.39 2.458.802.802 0 0 1-.016 1.19.934.934 0 0 1-.63.239.934.934 0 0 1-.646-.254c-.89-.85-1.9-1.582-3.001-2.176zm7.347 9.676a13.68 13.68 0 0 0-1.661-3.813c-.296-.47-.097-1.058.444-1.314.54-.257 1.217-.084 1.512.386a15.462 15.462 0 0 1 1.879 4.311c.137.522-.24 1.041-.84 1.16a1.282 1.282 0 0 1-.248.024c-.509 0-.968-.304-1.086-.754zM37.169 52.107a.95.95 0 0 1-.233 1.886c-1.5-.187-2.966-.58-4.357-1.167a.95.95 0 0 1-.504-1.245.947.947 0 0 1 1.241-.506c1.23.52 2.526.867 3.853 1.032zm5.802-28.491a.927.927 0 0 1-1.126.662 14.438 14.438 0 0 0-2.62-.404l-.002.034c-.495 8.025-7.029 14.464-15.16 14.927.015.054.026.11.03.167a13.89 13.89 0 0 0 .818 3.769.913.913 0 0 1-.554 1.174.927.927 0 0 1-1.188-.547 15.699 15.699 0 0 1-.925-4.26.902.902 0 0 1 .028-.298C13.775 38.4 7 31.432 7 22.93 7 14.147 14.234 7 23.127 7c8.59 0 15.632 6.67 16.1 15.041 1.04.057 2.07.21 3.074.462a.915.915 0 0 1 .67 1.113zM24.085 36.999c7.108-.468 12.809-6.1 13.283-13.121-7.108.468-12.809 6.1-13.283 13.121zm-1.856.005c.477-8.035 7.01-14.489 15.143-14.96C36.907 14.68 30.695 8.83 23.127 8.83c-7.87 0-14.273 6.325-14.273 14.1 0 7.477 5.92 13.613 13.374 14.072zM52.99 38c.585.026 1.036.465 1.008.981a14.578 14.578 0 0 1-.933 4.38c-.149.39-.562.638-1.005.638-.112 0-.226-.016-.338-.049-.555-.164-.854-.695-.668-1.186.475-1.247.752-2.551.825-3.874.029-.517.525-.916 1.111-.89zm-2.34 7.163c.365.292.459.876.21 1.304a15.808 15.808 0 0 1-2.549 3.312.728.728 0 0 1-.513.22.754.754 0 0 1-.612-.335c-.283-.397-.24-.989.098-1.323a13.996 13.996 0 0 0 2.257-2.932c.249-.429.745-.539 1.11-.246zm-6.995 5.918a.967.967 0 0 1 1.26.458.905.905 0 0 1-.476 1.215 16.917 16.917 0 0 1-4.347 1.235.942.942 0 0 1-1.082-.772c-.078-.502.28-.97.8-1.044a14.957 14.957 0 0 0 3.845-1.092zm-28.154-36.89c.4-.304.98-.24 1.297.142a.858.858 0 0 1-.148 1.241c-2.418 1.84-3.805 4.589-3.805 7.542 0 .488-.413.883-.923.883S11 23.604 11 23.117c0-3.495 1.641-6.748 4.502-8.925zM23.057 12c.52 0 .943.364.943.812 0 .448-.422.812-.943.812-.97 0-1.93.115-2.852.344a1.09 1.09 0 0 1-.262.032c-.41 0-.787-.232-.906-.587-.144-.431.145-.881.646-1.005A14.038 14.038 0 0 1 23.057 12z"/>
    </g>
</svg>
