<svg xmlns="http://www.w3.org/2000/svg" width="60" height="60" viewBox="0 0 60 60">
    <g fill="none" fill-rule="evenodd">
        <circle cx="30" cy="30" r="30" fill="#047AFE"/>
        <path fill="#FFF" fill-rule="nonzero" d="M47.83 35.834c.78-.993 1.153-2.058 1.105-3.155-.048-1.208-.588-2.153-1.033-2.733.517-1.288.715-3.314-1.01-4.887-1.263-1.153-3.408-1.67-6.38-1.526-2.09.095-3.838.485-3.91.5h-.008c-.397.072-.818.16-1.247.255-.032-.509.055-1.772.993-4.617 1.113-3.385 1.049-5.976-.207-7.708C34.814 10.143 32.708 10 32.09 10c-.596 0-1.145.246-1.534.7-.882 1.024-.779 2.916-.668 3.79-1.048 2.813-3.989 9.71-6.476 11.625-.048.032-.087.072-.127.112a8.536 8.536 0 0 0-1.558 2.336 3.28 3.28 0 0 0-1.573-.397h-4.847A3.308 3.308 0 0 0 12 31.47v12.913a3.308 3.308 0 0 0 3.306 3.306h4.847c.707 0 1.367-.222 1.907-.604l1.868.223c.286.04 5.371.683 10.592.58.946.071 1.836.111 2.662.111 1.423 0 2.662-.111 3.695-.334 2.432-.516 4.093-1.55 4.935-3.067.644-1.16.644-2.313.54-3.044 1.582-1.43 1.86-3.011 1.804-4.124a5.368 5.368 0 0 0-.325-1.597zm-32.524 9.71c-.644 0-1.16-.524-1.16-1.16v-12.92c0-.644.524-1.16 1.16-1.16h4.847c.644 0 1.16.524 1.16 1.16v12.912c0 .644-.524 1.16-1.16 1.16h-4.847v.009zm30.49-10.64c-.333.35-.397.882-.143 1.295 0 .008.326.565.366 1.328.055 1.04-.445 1.962-1.494 2.749a1.083 1.083 0 0 0-.366 1.224c0 .008.342 1.057-.214 2.05-.533.954-1.717 1.637-3.513 2.018-1.438.31-3.393.366-5.793.175h-.11c-5.11.111-10.276-.556-10.331-.564h-.008l-.803-.095c.048-.223.072-.461.072-.7v-12.92c0-.342-.056-.676-.151-.986.143-.532.54-1.716 1.478-2.726 3.568-2.829 7.056-12.372 7.207-12.785.064-.167.08-.35.048-.533-.135-.89-.087-1.979.103-2.304.421.008 1.558.127 2.241 1.072.81 1.12.779 3.123-.095 5.778-1.335 4.044-1.446 6.174-.39 7.112.525.468 1.224.492 1.733.31.485-.112.945-.207 1.382-.279l.104-.023c2.44-.533 6.81-.859 8.328.524 1.287 1.176.373 2.734.27 2.9a1.063 1.063 0 0 0 .19 1.383c.009.008.843.795.883 1.852.031.707-.302 1.43-.994 2.145z"/>
    </g>
</svg>
