<svg xmlns="http://www.w3.org/2000/svg" width="60" height="60" viewBox="0 0 60 60">
    <g fill="none" fill-rule="evenodd">
        <circle cx="30" cy="30" r="30" fill="#047AFE"/>
        <path fill="#FFF" fill-rule="nonzero" d="M44.539 31.385v-4.72h1.113c.614 0 1.113-.498 1.113-1.112v-4.378a3.343 3.343 0 0 0-3.34-3.34h-4.05c1.832-3.125-.518-6.997-4.093-6.83a4.483 4.483 0 0 0-3.76 2.357l-1.64 3.035-1.641-3.037a4.482 4.482 0 0 0-3.76-2.355c-3.574-.166-5.925 3.704-4.092 6.83h-3.824a3.343 3.343 0 0 0-3.339 3.34v4.378c0 .614.498 1.113 1.113 1.113h1.113v6.752h-3.339c-.615 0-1.113.498-1.113 1.113v13.356c0 .615.498 1.113 1.113 1.113h4.452c.547 0 1-.394 1.094-.914 2.181.598 4.546.914 6.85.914h9.938a7.829 7.829 0 0 0 6.219-3.097c.022-.028 7.636-9.341 7.658-9.37a3.311 3.311 0 0 0 .667-2.002c0-2.281-2.264-3.922-4.452-3.146zm-29.087 7.598v7.791h-2.226v-11.13h2.226v3.339zm27.974-18.921c.613 0 1.113.5 1.113 1.113v3.265H33.334v-4.378h10.092zm-1.113 6.604v6.52l-4.664 4.85a3.344 3.344 0 0 0-3.202-2.392h-1.113v-8.978h8.979zm-8.834-12.243a2.273 2.273 0 0 1 1.906-1.194c1.758-.082 2.978 1.784 2.121 3.39a2.256 2.256 0 0 1-2.015 1.217h-3.856l1.844-3.413zm-4.597 5.639h2.226v15.582h-1.802c-.143 0-.284-.01-.424-.03V20.061zm-4.612-6.836l.109.003c.807.037 1.52.483 1.905 1.191l1.845 3.416h-3.856a2.255 2.255 0 0 1-2.015-1.217c-.84-1.572.311-3.393 2.012-3.393zM15.452 24.44v-3.265c0-.614.5-1.113 1.113-1.113h10.091v4.378H15.452zm11.204 2.226v7.698a7.858 7.858 0 0 0-4.489-1.4c-1.62 0-3.184.494-4.489 1.4v-7.698h8.978zm19.899 8.516l-7.627 9.33-.029.036a5.592 5.592 0 0 1-4.452 2.226H24.51c-2.52 0-4.6-.366-6.83-.993V37.26l.775-.682a5.633 5.633 0 0 1 7.427 0 5.198 5.198 0 0 0 3.425 1.292h5.141a1.114 1.114 0 0 1 0 2.226h-7.91a1.113 1.113 0 0 0 0 2.226h8.656a3.35 3.35 0 0 0 2.437-1.056l7.195-7.48.005-.007.007-.006c.683-.734 1.928-.254 1.928.758 0 .236-.073.46-.21.65z"/>
    </g>
</svg>
